<svg width="20" height="20" viewBox="0 0 20 20" fill="none" xmlns="http://www.w3.org/2000/svg">
<mask id="path-1-inside-1_8_6464" fill="white">
<path d="M5.30575 19.9842C5.13612 19.9842 4.96252 19.9172 4.83235 19.787C4.572 19.5266 4.572 19.1006 4.83235 18.8402L13.7436 9.92505L4.96252 1.14399C4.70217 0.883623 4.70217 0.457568 4.96252 0.197217C5.22288 -0.0631348 5.64891 -0.0631348 5.90926 0.197217L15.1637 9.45165C15.424 9.712 15.424 10.138 15.1637 10.3984L5.77909 19.7869C5.64891 19.9171 5.47536 19.9842 5.30573 19.9842L5.30575 19.9842Z"/>
</mask>
<path d="M5.30575 19.9842C5.13612 19.9842 4.96252 19.9172 4.83235 19.787C4.572 19.5266 4.572 19.1006 4.83235 18.8402L13.7436 9.92505L4.96252 1.14399C4.70217 0.883623 4.70217 0.457568 4.96252 0.197217C5.22288 -0.0631348 5.64891 -0.0631348 5.90926 0.197217L15.1637 9.45165C15.424 9.712 15.424 10.138 15.1637 10.3984L5.77909 19.7869C5.64891 19.9171 5.47536 19.9842 5.30573 19.9842L5.30575 19.9842Z" fill="white"/>
<path d="M5.30575 19.9842V29.9842H28.9473L12.4816 13.0195L5.30575 19.9842ZM4.83235 18.8402L11.9034 25.9113L11.905 25.9097L4.83235 18.8402ZM13.7436 9.92505L20.8162 16.9945L27.8841 9.92348L20.8146 2.85398L13.7436 9.92505ZM4.96252 1.14399L-2.10881 8.2148L-2.10854 8.21506L4.96252 1.14399ZM5.90926 0.197217L-1.1618 7.26829L5.90926 0.197217ZM15.1637 9.45165L22.2348 2.38058L15.1637 9.45165ZM15.1637 10.3984L8.09263 3.32732L8.09114 3.32881L15.1637 10.3984ZM5.77909 19.7869L12.8502 26.858L12.8516 26.8565L5.77909 19.7869ZM5.30573 19.9842V9.98419H-18.3359L-1.87008 26.9489L5.30573 19.9842ZM5.30575 9.98421C7.71625 9.98421 10.1079 10.9204 11.9034 12.7159L-2.23872 26.8581C-0.182849 28.9139 2.55599 29.9842 5.30575 29.9842V9.98421ZM11.9034 12.7159C15.5483 16.3608 15.5483 22.2664 11.9034 25.9113L-2.23872 11.7692C-6.40431 15.9348 -6.40431 22.6925 -2.23872 26.8581L11.9034 12.7159ZM11.905 25.9097L20.8162 16.9945L6.67094 2.85555L-2.24029 11.7707L11.905 25.9097ZM20.8146 2.85398L12.0336 -5.92707L-2.10854 8.21506L6.67251 16.9961L20.8146 2.85398ZM12.0339 -5.92681C15.6782 -2.28214 15.6786 3.62325 12.0336 7.26828L-2.10854 -6.87385C-6.27428 -2.70811 -6.2739 4.04939 -2.10881 8.2148L12.0339 -5.92681ZM12.0336 7.26828C8.3887 10.9132 2.48309 10.9132 -1.1618 7.26828L12.9803 -6.87385C8.81474 -11.0394 2.05705 -11.0394 -2.10854 -6.87385L12.0336 7.26828ZM-1.1618 7.26829L8.09263 16.5227L22.2348 2.38058L12.9803 -6.87385L-1.1618 7.26829ZM8.09263 16.5227C4.44774 12.8778 4.44774 6.97221 8.09263 3.32732L22.2348 17.4695C26.4004 13.3039 26.4004 6.54618 22.2348 2.38058L8.09263 16.5227ZM8.09114 3.32881L-1.29347 12.7174L12.8516 26.8565L22.2362 17.468L8.09114 3.32881ZM-1.29198 12.7159C0.502085 10.9218 2.89312 9.98419 5.30573 9.98419V29.9842C8.05759 29.9842 10.7957 28.9124 12.8502 26.858L-1.29198 12.7159ZM-1.87008 26.9489L-1.87006 26.949L12.4816 13.0195L12.4815 13.0194L-1.87008 26.9489Z" fill="white" mask="url(#path-1-inside-1_8_6464)"/>
</svg>
