<svg width="18" height="19" viewBox="0 0 18 19" fill="none" xmlns="http://www.w3.org/2000/svg">
<path d="M6 3.25L4.875 4.375L6 3.25Z" fill="#D4D4D4"/>
<path d="M6 3.25L4.875 4.375" stroke="#D4D4D4" stroke-linecap="round" stroke-linejoin="round"/>
<path d="M4.875 2.125L6 3.25L4.875 2.125Z" fill="#D4D4D4"/>
<path d="M4.875 2.125L6 3.25" stroke="#D4D4D4" stroke-linecap="round" stroke-linejoin="round"/>
<path d="M4.5 3.25C3.25725 3.25 2.25 4.25725 2.25 5.5L4.5 3.25Z" fill="#D4D4D4"/>
<path d="M4.5 3.25C3.25725 3.25 2.25 4.25725 2.25 5.5" stroke="#D4D4D4" stroke-linecap="round" stroke-linejoin="round"/>
<path d="M4.5 3.25H6H4.5Z" fill="#D4D4D4"/>
<path d="M4.5 3.25H6" stroke="#D4D4D4" stroke-linecap="round" stroke-linejoin="round"/>
<path d="M12 15.25L13.125 14.125L12 15.25Z" fill="#D4D4D4"/>
<path d="M12 15.25L13.125 14.125" stroke="#D4D4D4" stroke-linecap="round" stroke-linejoin="round"/>
<path d="M13.125 16.375L12 15.25L13.125 16.375Z" fill="#D4D4D4"/>
<path d="M13.125 16.375L12 15.25" stroke="#D4D4D4" stroke-linecap="round" stroke-linejoin="round"/>
<path d="M13.5 15.25C14.7427 15.25 15.75 14.2427 15.75 13L13.5 15.25Z" fill="#D4D4D4"/>
<path d="M13.5 15.25C14.7427 15.25 15.75 14.2427 15.75 13" stroke="#D4D4D4" stroke-linecap="round" stroke-linejoin="round"/>
<path d="M13.5 15.25H12H13.5Z" fill="#D4D4D4"/>
<path d="M13.5 15.25H12" stroke="#D4D4D4" stroke-linecap="round" stroke-linejoin="round"/>
<path d="M7.125 15.25C9.39375 15.25 11.25 13.3938 11.25 11.125C11.25 8.85625 9.39375 7 7.125 7C4.85625 7 3 8.85625 3 11.125C3 12.0505 3.31275 12.9047 3.8325 13.594C4.58625 14.5967 5.78175 15.25 7.125 15.25Z" fill="#D4D4D4" stroke="#D4D4D4" stroke-linecap="round" stroke-linejoin="round"/>
<path d="M7.125 15.25C9.39375 15.25 11.25 13.3938 11.25 11.125C11.25 8.85625 9.39375 7 7.125 7C4.85625 7 3 8.85625 3 11.125C3 12.0505 3.31275 12.9047 3.8325 13.594C4.58625 14.5967 5.78175 15.25 7.125 15.25Z" fill="#D4D4D4" stroke="#858585" stroke-linecap="round" stroke-linejoin="round"/>
<path d="M11.625 11.5C13.8938 11.5 15.75 9.64375 15.75 7.375C15.75 5.10625 13.8938 3.25 11.625 3.25C9.35625 3.25 7.5 5.10625 7.5 7.375C7.5 8.3005 7.81275 9.15475 8.3325 9.844C9.08625 10.8467 10.2817 11.5 11.625 11.5Z" fill="#D4D4D4" stroke="#D4D4D4" stroke-linecap="round" stroke-linejoin="round"/>
<path d="M11.625 11.5C13.8938 11.5 15.75 9.64375 15.75 7.375C15.75 5.10625 13.8938 3.25 11.625 3.25C9.35625 3.25 7.5 5.10625 7.5 7.375C7.5 8.3005 7.81275 9.15475 8.3325 9.844C9.08625 10.8467 10.2817 11.5 11.625 11.5Z" fill="#D4D4D4" stroke="#858585" stroke-linecap="round" stroke-linejoin="round"/>
</svg>
