<svg width="18" height="19" viewBox="0 0 18 19" fill="none" xmlns="http://www.w3.org/2000/svg">
<path d="M1.5 15.7137C2.46356 15.332 3.53644 15.332 4.5 15.7137C5.46357 16.0955 6.53643 16.0955 7.5 15.7137C8.4636 15.332 9.5364 15.332 10.5 15.7137C11.4636 16.0955 12.5364 16.0955 13.5 15.7137C14.4636 15.332 15.5364 15.332 16.5 15.7137" stroke="#D4D4D4" stroke-linecap="round" stroke-linejoin="round"/>
<path d="M13.5 3.25C13.5 6.1495 11.4853 8.5 9 8.5C6.51472 8.5 4.5 6.1495 4.5 3.25" stroke="#D4D4D4" stroke-linecap="round" stroke-linejoin="round"/>
<path d="M2.25 13.75V2.875C2.25 2.77554 2.28951 2.68016 2.35984 2.60984C2.43016 2.53951 2.52554 2.5 2.625 2.5H4.125C4.22446 2.5 4.31984 2.53951 4.39016 2.60984C4.46049 2.68016 4.5 2.77554 4.5 2.875V13.75" stroke="#D4D4D4" stroke-linecap="round" stroke-linejoin="round"/>
<path d="M13.5 13.75V2.875C13.5 2.77554 13.5395 2.68016 13.6098 2.60984C13.6802 2.53951 13.7756 2.5 13.875 2.5H15.375C15.4744 2.5 15.5698 2.53951 15.6402 2.60984C15.7105 2.68016 15.75 2.77554 15.75 2.875V13.75" stroke="#D4D4D4" stroke-linecap="round" stroke-linejoin="round"/>
<path d="M13.5 11.5H4.5" stroke="#D4D4D4" stroke-linecap="round" stroke-linejoin="round"/>
<path d="M6.75 11.5V7.79578" stroke="#D4D4D4" stroke-linecap="round" stroke-linejoin="round"/>
<path d="M9 11.5V8.5" stroke="#D4D4D4" stroke-linecap="round" stroke-linejoin="round"/>
<path d="M15.75 11.5H17.25" stroke="#D4D4D4" stroke-linecap="round" stroke-linejoin="round"/>
<path d="M2.25 11.5H0.75" stroke="#D4D4D4" stroke-linecap="round" stroke-linejoin="round"/>
<path d="M11.25 11.5V7.79578" stroke="#D4D4D4" stroke-linecap="round" stroke-linejoin="round"/>
<path d="M17.2501 7C16.2752 5.9967 15.7361 4.64889 15.7501 3.25" stroke="#D4D4D4" stroke-linecap="round" stroke-linejoin="round"/>
<path d="M0.75 7C1.72493 5.9967 2.26406 4.64889 2.25 3.25" stroke="#D4D4D4" stroke-linecap="round" stroke-linejoin="round"/>
</svg>
